<?xml version="1.0" encoding="UTF-8"?>
<svg width="752pt" height="752pt" version="1.1" viewBox="0 0 752 752" xmlns="http://www.w3.org/2000/svg">
 <g>
  <path d="m418.43 245.77h-83.863c-2.9609 0-4.9336-1.9727-4.9336-4.9336v-91.754c0-2.9609 1.9727-4.9336 4.9336-4.9336h83.863c2.9609 0 4.9336 1.9727 4.9336 4.9336v90.77c0 2.9609-1.9727 5.918-4.9336 5.918z"/>
  <path d="m418.43 426.32h-83.863c-2.9609 0-4.9336-1.9727-4.9336-4.9336v-90.77c0-2.9609 1.9727-4.9336 4.9336-4.9336h83.863c2.9609 0 4.9336 1.9727 4.9336 4.9336v90.77c0 2.9609-1.9727 4.9336-4.9336 4.9336z"/>
  <path d="m418.43 607.86h-83.863c-2.9609 0-4.9336-1.9727-4.9336-4.9336v-90.77c0-2.9609 1.9727-4.9336 4.9336-4.9336h83.863c2.9609 0 4.9336 1.9727 4.9336 4.9336v90.77c0 2.9609-1.9727 4.9336-4.9336 4.9336z"/>
 </g>
</svg>
